<svg xmlns="http://www.w3.org/2000/svg" width="16.000000pt" height="16.000000pt" viewBox="0 0 16.000000 16.000000"><defs><style>.cls-1{fill:#3490dc;}</style></defs><title>safari-pinned-tab</title><g id="Layer_2" data-name="Layer 2"><g id="Layer_1-2" data-name="Layer 1"><path class="cls-1" d="M27,1.51c0,.76-.14,1.14-.43,1.14a6.19,6.19,0,0,1-1.94.23H7.78A3.42,3.42,0,0,0,6.91,3,3.28,3.28,0,0,1,6,3.11a1,1,0,0,0-.54,1,1.66,1.66,0,0,1-.11,1,10.77,10.77,0,0,0-1.3,1.6v6.86L3,14.76v.46l.86.91q0,2.52.11,6.51t.11,8.23Q4.11,35.11,4,39t-.11,6.17a1.45,1.45,0,0,1-1.51.46,3.39,3.39,0,0,0-1.73,0,4,4,0,0,1-.43-1.14Q0,42,0,39.79V35.11a11.18,11.18,0,0,0,1.3-1.6,3,3,0,0,1-.54-.69,3.46,3.46,0,0,0-.54-.69V26.42a11.08,11.08,0,0,0,1.3-1.6V23.45a2.83,2.83,0,0,1-1.3-1.37V16.36a1.22,1.22,0,0,1,.43-.57,1.23,1.23,0,0,0,.43-.57,5.41,5.41,0,0,0,.32-2.4,8.71,8.71,0,0,1,.11-2.4V.82L2.16.14H23.55a10.35,10.35,0,0,0,1.51,1.37ZM0,48.59a8.85,8.85,0,0,1,1.62-.23h1c1,0,1.51.54,1.51,1.6v1.83a11.25,11.25,0,0,1-1.3,1.6l1.08,1.14a1.63,1.63,0,0,0,.11.69,1.7,1.7,0,0,1,.11.69V63a.68.68,0,0,1-.22.46c0,.31-.15.46-.43.46H2.81c0-.76-.18-1.14-.54-1.14a3.57,3.57,0,0,1-1.19-.23c-.58,0-.86-.23-.86-.69Q0,58.65,0,55.45ZM2.16,63.9c.57.77,1,1.26,1.19,1.49l.76.8v59.65l-1.3,1.37a4.09,4.09,0,0,0,.22,1.6,2,2,0,0,1,.32.46,1.15,1.15,0,0,0,.54.46,7.23,7.23,0,0,1,.32,2.74c-.07.91-.11,1.83-.11,2.74V161.5c0,.91,0,1.87.11,2.86A6.16,6.16,0,0,1,3.89,167c-.29.46-.58.65-.86.57a1.89,1.89,0,0,0-1.08.11,6.39,6.39,0,0,0-.32.8,7.2,7.2,0,0,1-.32.8c.14.46.29.69.43.69.43.46.83.91,1.19,1.37s.76.91,1.19,1.37v12.57a1.24,1.24,0,0,1,.54.46c.07.15.25.23.54.23a19.2,19.2,0,0,0,2.92.23h3.13a.62.62,0,0,1,.43.23,1.23,1.23,0,0,1,.54.46,1.15,1.15,0,0,0,.54.46,6.8,6.8,0,0,0,.76-.46,5.18,5.18,0,0,0,.76-.69h3.89l1.3,1.37A10.55,10.55,0,0,0,21,186.18h1a1.32,1.32,0,0,1,1,.46,3.27,3.27,0,0,0,.86.69l.86-.91q1.08-.22,1.94-.46t1.73.91a22.56,22.56,0,0,0-1.84,1.71l-1.62,1.71h-8l-1.3-1.37a3.08,3.08,0,0,1-.65.57,1.23,1.23,0,0,0-.43.57,3.79,3.79,0,0,1-1.94.34,14.54,14.54,0,0,0-1.94-.11H5.83a14.5,14.5,0,0,0-1.94.11,3.78,3.78,0,0,1-1.94-.34,1.5,1.5,0,0,1-.65-1.6,3.54,3.54,0,0,0-.22-2.06A.69.69,0,0,0,.86,186l-.65-.69v-2.74a5.78,5.78,0,0,1,1.08-1.26c.43-.38.86-.8,1.3-1.26a1.51,1.51,0,0,0-.76-1.37q-.76-.46-.32-1.6a10.58,10.58,0,0,1-1.3-1.6v-9.83a9.83,9.83,0,0,1,1.19-1.48l1.4-1.49v-1.37a1.75,1.75,0,0,0-1.08-.69q-1.51,0-1.51-.91-.22-5.94-.22-12v-12a8.64,8.64,0,0,0,1.41-1.37,5.7,5.7,0,0,1,1.19-1.14c0-.61-.22-.91-.65-.91a1.87,1.87,0,0,0-.86-.23q-.44,0-.86-.69V83.1a3.78,3.78,0,0,0,.43-.57,5.25,5.25,0,0,1,.65-.8A6.22,6.22,0,0,1,.22,80.36V73.27a10.77,10.77,0,0,1,1.3-1.6A2.5,2.5,0,0,0,.43,69.39,6.68,6.68,0,0,1,0,67a12.79,12.79,0,0,1,.22-2.4A3,3,0,0,1,2.16,63.9ZM14.91,18.65V18A1,1,0,0,1,16,17.28q1.51-.45,1.3-.91,0-.69-1.73-.69l-1.3-1.37H8.86a1.26,1.26,0,0,0-.43-.57c-.14-.07-.22-.26-.22-.57V7.91l.65-.69h48.4c.14,0,.21.08.21.23,0,.31.07.46.22.46a3.35,3.35,0,0,0-.54.69,3.22,3.22,0,0,1-.54.69,1.67,1.67,0,0,1-.11.69,1.7,1.7,0,0,0-.11.69l1.51,1.6v1.37a11,11,0,0,1,1.3,1.6v.91a1.32,1.32,0,0,0,.44.91,2.5,2.5,0,0,1,.86,1.14,17.85,17.85,0,0,1-.11,2.06,4.27,4.27,0,0,0,.32,2.06l.86.91a4.73,4.73,0,0,1,.32,2.17,21.15,21.15,0,0,0-.11,2.17,11.68,11.68,0,0,1,1.3,1.6v4.11a6.16,6.16,0,0,1,.65.8,5.15,5.15,0,0,0,.64.8V39l1.52,1.6V42a5.76,5.76,0,0,1,.65.8,4.93,4.93,0,0,0,.65.8V46.3a8.36,8.36,0,0,0,1.3,1.14,23.38,23.38,0,0,1,0,4.46,20.32,20.32,0,0,0,0,4.23l1.29,1.37a11.85,11.85,0,0,1,.11,2.74q-.11,1.37-.11,3l1.3,1.37a3.54,3.54,0,0,0,1.52,3v4.11a10.43,10.43,0,0,0,1.29,1.6v4.11A7.77,7.77,0,0,0,75.41,79v4.34a1.71,1.71,0,0,1,1.19,1.94,1.71,1.71,0,0,0,1.19,1.94,4.25,4.25,0,0,1,.11,2.51,2.61,2.61,0,0,0,.76,2.51,5.44,5.44,0,0,1,.76-.69,5.54,5.54,0,0,0,.76-.69h2.59c.58-.3.65-.69.22-1.14a1.7,1.7,0,0,0-1.3-.34,1,1,0,0,1-1.08-.57V87.44a1,1,0,0,1,1.3-.69c.57.15,1-.15,1.3-.91L82.1,84.7a20.45,20.45,0,0,1,0-5.94l1.08-1.14a11.85,11.85,0,0,0,.11-2.74,11.57,11.57,0,0,1,.11-2.74,2.09,2.09,0,0,1,1-1.37c.5-.3.61-.83.32-1.6a5.55,5.55,0,0,0,.65-.8,5.41,5.41,0,0,1,.65-.8V61.85a11.46,11.46,0,0,0,1.3-1.6V56.13a7.78,7.78,0,0,0,1.51-1.6V51.79l1.08-1.14c0-.76,0-1.52.11-2.29s.11-1.52.11-2.29a3.16,3.16,0,0,1,.65-.57,1.24,1.24,0,0,0,.43-.57V42.19l.76-.8.76-.8V37.85A11.08,11.08,0,0,0,94,36.25V32.13l.76-.8.76-.8V27.79a5.92,5.92,0,0,0,.65-.8,5.1,5.1,0,0,1,.65-.8V22.08l1.29-1.37V16.36a6.36,6.36,0,0,1,1.3-1.14V12.48a7.68,7.68,0,0,1,2.16-2.29,1.44,1.44,0,0,1,.64.8c.14.38.44.42.87.12.29-.15.43-.53.43-1.14a.84.84,0,0,1-.11-.69,1.69,1.69,0,0,0,.11-.69V7.91l.43-.46a19.29,19.29,0,0,1,2.81-.23h2.81L111.27,9l.87,3.89h1.29l1.95-2.06a14.28,14.28,0,0,0-1.3-1.6,15.26,15.26,0,0,1-1.3-1.6,3,3,0,0,1,2.59-.57,6,6,0,0,0,2.59.11,15.13,15.13,0,0,1,3.13-.11c.93.08,1.91.11,2.91.11h22.26c.86,0,1.73,0,2.59-.11a6.17,6.17,0,0,1,2.59.34.48.48,0,0,0,.11.34.5.5,0,0,1,.11.34v5.48l-2.59,2.74v2.74q0,.23.87.69a1.44,1.44,0,0,0,.64-.69.42.42,0,0,1,.65-.23c.44.15.61.42.54.8a5.28,5.28,0,0,0-.11,1,5.1,5.1,0,0,0-.65.8,6,6,0,0,1-.65.8,3.38,3.38,0,0,0,.21,1.37l.87.91a.48.48,0,0,0,.11.34.5.5,0,0,1,.11.34V90.64a16.79,16.79,0,0,0,.11,2.06,6.91,6.91,0,0,1-.11,2.06,19.09,19.09,0,0,0-2.38,2.51c.14.76.5,1,1.08.8s1,0,1.3.8V103a4.75,4.75,0,0,1-1.3.69,4.6,4.6,0,0,1-1.3-.69v-1.37q-2.16-1.37-2.81.91v.69a15.44,15.44,0,0,1-1.95,1.83c0,.15-.22.23-.65.23.29-.76.14-1.14-.43-1.14a.62.62,0,0,0-.43-.23,1.55,1.55,0,0,1-.65-.23,1,1,0,0,0-1.08.69c0,.46.21.69.64.69a6.22,6.22,0,0,0,1.95.23v1.37c0,.61.14,1,.43,1.14s.51-.07,1.08-.69l.43-.46c.57.61.86,1,.86,1.26a4.31,4.31,0,0,1-.65,1.49h-4.11a1.77,1.77,0,0,0-.76,1.94,3.62,3.62,0,0,1,.11,1.94,1.38,1.38,0,0,0,.64,1.83l1.3-1.37h2.81a1.17,1.17,0,0,0,.44.57,1.28,1.28,0,0,1,.43.57h.65a5.18,5.18,0,0,1,.86-.8,7.5,7.5,0,0,1,1.3-.34,6.4,6.4,0,0,1,2.38,2.51,6.82,6.82,0,0,0-.32.8,6.55,6.55,0,0,1-.32.8h-1.51a2.7,2.7,0,0,1-.43.69.67.67,0,0,0-.22.46c-.15,1.07.36,1.68,1.51,1.83a1,1,0,0,1,1.08.69l-1.3,1.37v1.37a6.16,6.16,0,0,1,.65.8,5,5,0,0,0,.65.8,5.23,5.23,0,0,0,.11,1c.07.38-.11.65-.54.8s-.54,0-.76-.34a2,2,0,0,0-.76-.8.48.48,0,0,0-.54-.11,2.19,2.19,0,0,1-.76.11,10.61,10.61,0,0,1-1.51,1.37h-1.3l-.43.46a.89.89,0,0,0,.64.91c.29.15.51.19.65.11a1.45,1.45,0,0,1,.65-.11c.29.91.79,1.34,1.52,1.26a1.77,1.77,0,0,1,1.73.8v3a1,1,0,0,1-1.08.57,1.14,1.14,0,0,0-1.08.34L146.49,137a23.15,23.15,0,0,0,1.95,2.29,7.77,7.77,0,0,1,1.52-1.6,1.79,1.79,0,0,0,.86.23,3.45,3.45,0,0,1,1.08.23,9,9,0,0,0-.76.91,8.81,8.81,0,0,1-.76.91v2.74a11.68,11.68,0,0,1,1.3,1.6v1.37c-.29.31-.51.42-.65.34a12.48,12.48,0,0,1-1.3-1c-.43.46-.65.76-.65.91a13,13,0,0,1-.11,1.71,1.6,1.6,0,0,0,.76,1.49H151l.43.46a13,13,0,0,1,.22,2.74,1.9,1.9,0,0,1-.65,1.14h-3.89a21.38,21.38,0,0,0-2.16,2.06v1.37a11,11,0,0,0-1.3,1.6c.29.31.47.46.54.46a1.94,1.94,0,0,1,.54.23c1,0,1.52-.38,1.52-1.14a1.91,1.91,0,0,0,.21-1.14c.29-.3.44-.53.44-.69a11.12,11.12,0,0,1,1.51,1.37H151a11.85,11.85,0,0,1,.54,1.71,24.38,24.38,0,0,1,.11,3.09,2.88,2.88,0,0,1-1.3,1.6v5.71l-1.52,1.6a8.14,8.14,0,0,1,2.38.91c.29,0,.44.15.44.46s-.15.46-.44.46a14.61,14.61,0,0,1-1.62.34c-.51.08-.69.57-.54,1.48a1,1,0,0,1-.43.8,2.17,2.17,0,0,0-.65.8,2,2,0,0,0,.43,2.51h1.3l.43.46a13,13,0,0,1,.22,2.74,1.41,1.41,0,0,0-.32.57.5.5,0,0,1-.54.34H135a3.45,3.45,0,0,0-.65-.57,1.18,1.18,0,0,1-.43-.57q-.65-.23-.87.34a1.42,1.42,0,0,1-.65.8h-2.81a1.74,1.74,0,0,0-.54-.69,5.18,5.18,0,0,1-.76-.69,10.71,10.71,0,0,1-1.51,1.37h-8a1.9,1.9,0,0,1-.65-1.14v-6.4a.68.68,0,0,0,.22-.46,1.76,1.76,0,0,1,1.62-.46,2.9,2.9,0,0,0,1.62,0c.29-.3.44-.53.44-.69,0-.46-.22-.69-.65-.69a2.54,2.54,0,0,0-1.3-.11,7.2,7.2,0,0,1-1.3.11c-.14-.3-.29-.46-.43-.46s-.22-.07-.22-.23v-8.46c0-.15.36-.46,1.08-.91a1.92,1.92,0,0,1,1.29,0,1.35,1.35,0,0,0,1.3-.23,1.45,1.45,0,0,0,.65-.69.86.86,0,0,1,.87-.46,1.54,1.54,0,0,0,1.51-.91,4.65,4.65,0,0,1-1.4-1.6c-.08-.3.18-.91.76-1.83a4.84,4.84,0,0,1,1,.11c.36.08.61-.11.76-.57a.47.47,0,0,0-.21-.69,1.4,1.4,0,0,1-.65-.69c-.29-.3-.44-.53-.44-.69h-.21q-1.09.92-1.95,1.71c-.58.54-1.08,1-1.51,1.49a13.78,13.78,0,0,1-.11,2.29,4.62,4.62,0,0,1-.76,1.37,11,11,0,0,1-.86-1c-.29-.38-.65-.87-1.08-1.48.14.31.18.42.11.34a.46.46,0,0,1-.11-.34V143a10.82,10.82,0,0,0,1.3-1.6V140a10.82,10.82,0,0,1-1.3-1.6V134.3a10.76,10.76,0,0,0,1.3-1.6v-1.14a3.45,3.45,0,0,1-.65-.91,3.57,3.57,0,0,0-.65-.91v-2.51c-.14-.3-.25-.46-.32-.46s-.18-.08-.32-.23a3.9,3.9,0,0,1-.86-1.48,3.92,3.92,0,0,1,.86-1.49q.87-1.14.76-1.49a7.86,7.86,0,0,0-1-1.48l-.43-.46,1.29-1.37a11.22,11.22,0,0,0-1.29-1.6v-1.37a5.47,5.47,0,0,0,.64-.8,1.66,1.66,0,0,1,.65-.57,2.46,2.46,0,0,0-1.08-2.51.5.5,0,0,0-.11-.34.46.46,0,0,1-.11-.34V103l1.29-1.37a10.43,10.43,0,0,1-1.29-1.6V74.87a.79.79,0,0,0-.32-.69c-.22-.15-.4-.15-.54,0s-.43.15-.43.46a2.94,2.94,0,0,0-.11,1.37,9,9,0,0,1,.11,1.37L114.08,79V84.7L113,85.84a20.75,20.75,0,0,1-.43,3.2,2,2,0,0,0-1.08,1.71v2.17a5.1,5.1,0,0,0-.65.8,5.55,5.55,0,0,1-.65.8v4.11a11,11,0,0,0-1.3,1.6v4.11l-.76.8-.76.8v2.74a10.63,10.63,0,0,0-1.3,1.6v4.11a11.1,11.1,0,0,1-1.3,1.6v3.66a.48.48,0,0,1-.11.34.47.47,0,0,0-.11.34,1.62,1.62,0,0,0-1.08,1.6v2.29a11,11,0,0,0-1.3,1.6v8.23l-.76.8-.76.8V137a11,11,0,0,0-1.3,1.6v4.11a5.41,5.41,0,0,0-.65.8,5.22,5.22,0,0,1-.65.8v2.74a3.07,3.07,0,0,1-.65.57,1.25,1.25,0,0,0-.43.57,4.73,4.73,0,0,0-.32,2.17,21.1,21.1,0,0,1,.11,2.17,5,5,0,0,0-1.3,1.6,5.73,5.73,0,0,0-.11,1.94,7.58,7.58,0,0,1-.11,2.17,8.36,8.36,0,0,1-.43.8,5.55,5.55,0,0,1-.65.8v2.51L92.7,164v2.74a11.45,11.45,0,0,1-1.3,1.6v2.74a7.81,7.81,0,0,1-1.52,1.6V177a1.93,1.93,0,0,0-1.08,1.6,11.35,11.35,0,0,1-.22,2.06,2.22,2.22,0,0,1-.86,1.37,4,4,0,0,0-1.08,1.14H72c-.44-.15-.65-.53-.65-1.14,0-1.06-.58-1.6-1.73-1.6a.6.6,0,0,1-.44-.23,2.61,2.61,0,0,0-.64-.46v-1.6a1,1,0,0,1,1.4-.57c.65.23,1.11,0,1.4-.8v-1.37c-.29-.3-.51-.46-.65-.46s-.58.38-1.3,1.14H67.85a11,11,0,0,1-.87-1,16.13,16.13,0,0,0-1.08-1.26v-2.28a3.47,3.47,0,0,1-.65-.91,3.7,3.7,0,0,0-.65-.91v-8.46a11.1,11.1,0,0,0-1.51-1.37v-1.37a11.68,11.68,0,0,0-1.3-1.6v-7.08a13,13,0,0,0-1-.91,1.27,1.27,0,0,1-.32-1.37.79.79,0,0,0-.54-1c-.5-.23-.68-.57-.54-1A19.09,19.09,0,0,1,61.8,143q-.43-.91-1.08-.8a1.11,1.11,0,0,1-1.08-.34c-.58-.3-.72-.69-.44-1.14h1.73c.14,0,.36-.15.65-.46a.68.68,0,0,0,.22-.46l-.43-.46c-1.3-.3-2,.15-2.16,1.37q-1.08.46-1.08-.46a5.78,5.78,0,0,1-.54-1.71,1.68,1.68,0,0,0-1-1.26v-4.11a14,14,0,0,0-1.52-1.83v-3.88a11,11,0,0,0-1.3-1.6V123.1a11.22,11.22,0,0,0-1.29-1.6v-2.74a4.93,4.93,0,0,1-.65-.8,6.16,6.16,0,0,0-.65-.8l1.3-1.37a5.24,5.24,0,0,1-.22-1.6,15.38,15.38,0,0,0-1.95-1.83h-.65v-5a5.22,5.22,0,0,1-.65-.8,5.67,5.67,0,0,0-.64-.8V103l1.29-1.37a1.2,1.2,0,0,0-1-.69h-1a1.28,1.28,0,0,0-.44-.57c-.14-.07-.21-.26-.21-.57v-6.4c0-.15,0-.23-.11-.23s-.11-.07-.11-.23l-1.08-1.14a5.39,5.39,0,0,1,0-2.17,3.85,3.85,0,0,0-.22-2.17,3.6,3.6,0,0,1-.43-.57,5.76,5.76,0,0,0-.65-.8V82l-.76-.8-.76-.8V77.62A11.68,11.68,0,0,0,41.7,76V70.3l-1.08-1.14a3.54,3.54,0,0,1-.44-1.37,2.16,2.16,0,0,0-.21-.91l-.87.91V78.53l-.21.46c-.29.46-.62.65-1,.57a1.42,1.42,0,0,0-1,.12c-.43.76-.36,1.22.22,1.37h1.29c.29.31.44.54.44.69a1,1,0,0,0,.11.46,1.7,1.7,0,0,1,.11.69v98.74a1.68,1.68,0,0,1-.11.69l-.32.69a5.15,5.15,0,0,1-2.48.34c-.94-.07-1.84-.11-2.7-.11a7.36,7.36,0,0,1-2.27.11q-1.19-.11-2.27-.11H8.86l-1.94-2.06a3.4,3.4,0,0,0-.22-1.37l.76-.8.76-.8v-1.37a5.69,5.69,0,0,0-.76-.69,1.64,1.64,0,0,1-.54-.69V172.7a5.46,5.46,0,0,0,.65-.8,7.82,7.82,0,0,0,.43-.8,1.26,1.26,0,0,0-.43-.57,1.19,1.19,0,0,1-.43-.57,4.11,4.11,0,0,1,0-3.2q.43-.91,1.08-.46a1,1,0,0,0,1.08-.69.3.3,0,0,0,0-.46.86.86,0,0,0-.65-.23,1.88,1.88,0,0,0-.86-.23c-.29,0-.58-.23-.87-.69V106a7.09,7.09,0,0,1,.43-.8,5.23,5.23,0,0,1,.65-.8A5.73,5.73,0,0,0,6.7,103V76a1.13,1.13,0,0,1,1.4-.69,1.12,1.12,0,0,0,1.41-.69V73c-.29-.3-.51-.42-.65-.34A10.47,10.47,0,0,0,7.56,74a1.26,1.26,0,0,0-.43-.57c-.15-.07-.22-.26-.22-.57q-.44-9.6,0-19.2a.67.67,0,0,1,.22-.46A4.83,4.83,0,0,1,8,52a2.81,2.81,0,0,0-.86-1.26q-.65-.57.43-2.4c-.29.15-.32.15-.11,0a5.26,5.26,0,0,0,.76-.69V46.3a5.53,5.53,0,0,0,.65-.8,5.33,5.33,0,0,1,.65-.8V42c-.29-.3-.51-.46-.65-.46s-.58.38-1.3,1.14c-.72-.3-1-.76-.76-1.37a1.77,1.77,0,0,0-.11-1.6,4.57,4.57,0,0,1,1.19-1.83q.75-.69,1.4-1.37a11.78,11.78,0,0,0,.32-1.26q.11-.57-1-.8l-.86.91c-.58.31-.87.15-.87-.46q-.22-3.2-.22-6.4v-6.4a7.79,7.79,0,0,0,1.51-1.6V17.74l.43-.46h4.11a3,3,0,0,1,.76.57l.76.8h.65a1.52,1.52,0,0,0,.65,1.48,2.64,2.64,0,0,1,1.08,1.26h1.19c.36,0,.68-.3,1-.91-.29-.3-.61-.61-1-.91a11,11,0,0,1-1-.91Zm-6,110.62-.43.46q-.22.46.43.91h2.59c.29,0,.43-.15.43-.46q.43-.45-.43-.91Zm3-72.91V55.9a1.56,1.56,0,0,0-1.19-.46c-.51,0-.83.15-1,.46v.46a1.54,1.54,0,0,0,1.19.46C11.41,56.82,11.74,56.67,11.88,56.36Zm.22,45.94h-.65c-.58.31-.72.61-.43.91l.43.46h.65q1.73,0,1.3-.91A1.2,1.2,0,0,0,12.1,102.3Zm7.56-42.74.43-.46a2.26,2.26,0,0,0,0-1.37.5.5,0,0,0-.11-.34.46.46,0,0,1-.11-.34h-.43a1.46,1.46,0,0,0-.65,1.26,1.74,1.74,0,0,0,.43,1.26ZM24.2,74.65a4,4,0,0,1,1.08,1.14,3.16,3.16,0,0,0,1.51,1.14,6.19,6.19,0,0,1,.76-.34,5.67,5.67,0,0,0,.76-.34,8.82,8.82,0,0,1-1.08-1.37A2.24,2.24,0,0,0,25.71,74,2.58,2.58,0,0,0,24.2,74.65Zm3.46,24.91c.14-.15.22-.26.22-.34s.07-.19.22-.34,0-.46-.43-.91H24.85c0,.15-.15.38-.43.69q0,.23.65.91Zm.65,32A10.68,10.68,0,0,1,27,130c-.43-.46-.72-.61-.86-.46a1.06,1.06,0,0,0-.65,1.14,7.45,7.45,0,0,1,.22,2.06c.57.61,1,.91,1.19.91a3.93,3.93,0,0,0,1.41-.69Zm1.94-130h1.3A10.81,10.81,0,0,1,33.06.14H57a5.25,5.25,0,0,0,.76.69,5.44,5.44,0,0,1,.76.69h3.89c.28.31.5.46.65.46V4.25a12.44,12.44,0,0,0,.21,2.29,8.8,8.8,0,0,1,1.08,1.37,3.29,3.29,0,0,0,.22,1.37,11.24,11.24,0,0,1,1.3,1.6v1.37l-1.3,1.37a11.79,11.79,0,0,0,1,.91,1.28,1.28,0,0,1,.32,1.37c0,.46.07.69.22.69a1.63,1.63,0,0,1,1.08,1.6A2.53,2.53,0,0,0,67.85,20l.65.69v11.2a11.22,11.22,0,0,1,1.29,1.6v1.37c-.43.46-.72.69-.86.69a11,11,0,0,0-1.62.11,1.47,1.47,0,0,1-1.4-.8V33.51a11.45,11.45,0,0,0,1.3-1.6,3.2,3.2,0,0,1-1.52-3,1.14,1.14,0,0,1-.54-.46,3.5,3.5,0,0,0-.54-.69,16.29,16.29,0,0,1-.11-3.31,20,20,0,0,0-.11-3.54,7.77,7.77,0,0,0-.43-.8,5.41,5.41,0,0,0-.65-.8V16.59L61.8,15l1.3-1.37a5,5,0,0,1-.65-.8,5.76,5.76,0,0,0-.65-.8V9.28L60.72,8.14a1,1,0,0,0-.11-.57A1,1,0,0,1,60.5,7V5.62a1.37,1.37,0,0,0-.65-1.14H39.76a4.42,4.42,0,0,0-1.51-1.37,3.09,3.09,0,0,1-.65.57,3.16,3.16,0,0,0-.65.57L35.87,3.11a1,1,0,0,0-.76.34l-.76.8H30.25A6.57,6.57,0,0,1,29,3q-.65-.8-1.3-1.49A3.05,3.05,0,0,1,27,.71c0-.07.14-.19.43-.34.87-.3,1.44-.3,1.73,0a1.24,1.24,0,0,1,.54.46A3,3,0,0,0,30.25,1.51Zm14,30.63v-1.6c-.72-.46-1.23-.65-1.52-.57a4.79,4.79,0,0,0-1.51,1.26.41.41,0,0,1-.32-.11.44.44,0,0,0-.32-.11,1.06,1.06,0,0,1-.22-1.14c0-.76-.22-1.14-.65-1.14s-.65.31-.65.91A1.93,1.93,0,0,0,39,30.76a7.72,7.72,0,0,1,.11,1.14,18.16,18.16,0,0,0-1.94,2.29H35.65a11,11,0,0,0-1.51-1.37H31.76A13.37,13.37,0,0,0,30,31.22a1.5,1.5,0,0,1-1.51.11,1.2,1.2,0,0,0-1.51.57c.29.61.65.88,1.08.8a1.14,1.14,0,0,1,1.08.34Q30.25,34.2,31.11,35t1.94,1.94h5.19l.76.8.76.8q.86-.91,1.62-1.83T43,34.88V33.51ZM30.9,115.79v-.69c.29-.46.14-.83-.43-1.14-.15-.15-.43,0-.86.46l-1.3,1.37Q29.6,117.62,30.9,115.79Zm14.91,74.28a7.49,7.49,0,0,1-2.81.34c-.87-.08-1.66-.11-2.38-.11H36.73c-.72,0-1.48,0-2.27.11a9.38,9.38,0,0,1-2.48-.11,8,8,0,0,0-1.84.23,1.79,1.79,0,0,1-1.84-.91,12,12,0,0,1,1-.91c.36-.3.83-.69,1.4-1.14a6.51,6.51,0,0,1,2.16-.11c.86.08,1.73.11,2.59.11h4.11a3.88,3.88,0,0,0,1-.91,1.12,1.12,0,0,1,1-.46,1.64,1.64,0,0,1,.65-.23,1.59,1.59,0,0,0,.65-.23,6.12,6.12,0,0,0,.32-2.63c-.08-1-.11-1.94-.11-2.86a8.93,8.93,0,0,0,.11-2.4C43,177,43,176.2,43,175.44a1.25,1.25,0,0,1,1.73-.69c.57,0,.86.31.86.91q.21,3.43.22,7ZM30.25,96.59q-1.51,1.6,0,3Q32,98.19,30.25,96.59Zm8.21-82.28a10.89,10.89,0,0,0-1.51,1.37h-6a.86.86,0,0,0-.65.23l-.22.23c0,.15-.07.23-.22.23l.65.69a2.49,2.49,0,0,0,1.3.11,7.59,7.59,0,0,1,1.3-.11,3,3,0,0,0,2.38,1.6,2.58,2.58,0,0,1,1.19-.23,1.35,1.35,0,0,0,1.19-.69,1.21,1.21,0,0,1,.86-.46,1.85,1.85,0,0,0,.87-.23l.64-.69A16,16,0,0,1,38.46,14.31ZM33.71,173.38h.65l.43-.46c.14-.3,0-.61-.43-.91-.15-.15-.25-.19-.32-.11s-.18,0-.32-.11a1,1,0,0,0-1.08.69Q32.19,173.38,33.71,173.38ZM44.3,39.22q-1.3-1.6-2.59,0v1.37L40.4,42v.69c-.29.46-.15.84.43,1.14.14.15.44,0,.87-.46s.9-.91,1.4-1.37.9-.84,1.19-1.14Zm5.4,79.31a7.81,7.81,0,0,0,1.52,1.6v4.11a6.16,6.16,0,0,1,.65.8,8.68,8.68,0,0,1,.43.8,1.24,1.24,0,0,1-.43.57,1.21,1.21,0,0,0-.44.57.61.61,0,0,0,.22.8,2.28,2.28,0,0,1,.65.8,3,3,0,0,1,.22,1.94,6.55,6.55,0,0,0,0,2.4l1.29,1.37v4.12a11,11,0,0,1,1.3,1.6v4.11a5.76,5.76,0,0,1,.65.8,5.22,5.22,0,0,0,.65.8v1.37a7.84,7.84,0,0,1,1.51,1.6v4.11L59,154a1.09,1.09,0,0,1,.21,1.14,3,3,0,0,0,0,1.6,11,11,0,0,0-1.3,1.6c.14.76.44,1.07.87.91a1.61,1.61,0,0,1,1.51.46,14.51,14.51,0,0,1,.22,3L61.8,164v2.74a10.76,10.76,0,0,0,1.3,1.6v4.34a5.71,5.71,0,0,1,1.29,1.37v4.34a5,5,0,0,1-.76.69.79.79,0,0,0-.32.69c.29.46.61.65,1,.57a1.42,1.42,0,0,1,1,.11,5.59,5.59,0,0,1,.65,1.14,8.89,8.89,0,0,1,0,2.74,5.82,5.82,0,0,0,.22,2.74l.43.46H72a1.36,1.36,0,0,1,.65,1.14c0,1.07-.29,1.6-.87,1.6H64.82a14.54,14.54,0,0,0-.44-2.29,8.79,8.79,0,0,0-1.29-1.14V185.5a11.68,11.68,0,0,0-1.3-1.6v-8.46c-.43-.46-.83-.91-1.19-1.37a5.76,5.76,0,0,0-1.19-1.14,4.65,4.65,0,0,1-.32-2.17,21.07,21.07,0,0,0,.11-2.17,10.82,10.82,0,0,1-1.3-1.6v-2.74a10.68,10.68,0,0,1-1.29-1.6v-4.11a7.81,7.81,0,0,1-1.52-1.6v-2.74a10.76,10.76,0,0,1-1.3-1.6v-2.74l-1.51-1.6v-4.11a1.28,1.28,0,0,0-.43-.57,1.17,1.17,0,0,1-.44-.57,4.12,4.12,0,0,1-.21-2.29,3.29,3.29,0,0,0-.22-2.06,6.87,6.87,0,0,0-.76-1,1.12,1.12,0,0,1-.32-.8,3.55,3.55,0,0,0-1.51-2.51v-4.11a4.93,4.93,0,0,1-.65-.8,6.16,6.16,0,0,0-.65-.8v-1.37l1.3-1.37-1.95-2.06c-.43.46-.65.77-.65.91v18.06a3.5,3.5,0,0,1,.54.69,1.14,1.14,0,0,0,.54.46,9.07,9.07,0,0,1,0,4.8,1.19,1.19,0,0,0-.54.46,3.29,3.29,0,0,1-.54.69,11.68,11.68,0,0,1,1.3,1.6v8.91c0,.76-.15,1.14-.43,1.14a1.62,1.62,0,0,1-.65.23.62.62,0,0,0-.44.23l-1.29.69a1.59,1.59,0,0,0,.11.69.86.86,0,0,1-.11.69c0,.31-.15.46-.44.46a.46.46,0,0,1-.54.12c-.22-.08-.32-.26-.32-.57V124.47a11.68,11.68,0,0,0-1.3-1.6v-7.08a5.55,5.55,0,0,0,.65-.8,5.1,5.1,0,0,1,.65-.8v-1.37a4.88,4.88,0,0,0-1.08-.91.5.5,0,0,0-.11-.34.48.48,0,0,1-.11-.34v-9.6l1.3-1.37a10.76,10.76,0,0,1-1.3-1.6V94.76c0-.61.29-.91.86-.91a1.2,1.2,0,0,1,1.73.91v2.51l.76.8.76.8v2.74a1.2,1.2,0,0,0,.43.57,3.34,3.34,0,0,1,.65.57,5.85,5.85,0,0,1,.11,3,6.84,6.84,0,0,0,.11,3.2q1.08.46,1.51,2.74a1,1,0,0,0,1.08.69v6.17Zm-3.89,53.94c-.72.61-1.19.91-1.4.91s-.68-.3-1.4-.91V167c.72-.61,1.19-.91,1.4-.91s.68.31,1.4.91ZM51.86,105q-1.51,1.6,0,3A2,2,0,0,0,51.86,105ZM53.8,28.48h-.64c-.58.31-.72.61-.44.91,0,.31.14.46.44.46h.64c1,0,1.37-.3,1.08-.91S54.23,28.17,53.8,28.48Zm2.59-2.06q-1.29-1.6-2.59,0A1.57,1.57,0,0,0,56.39,26.42Zm-.65,10.51q-1.51,1.6,0,3a1.34,1.34,0,0,1,1.08,0c.44.15.72-.15.87-.91Zm6.05,91h1.95c.57-.61.86-1,.86-1.26a4.44,4.44,0,0,0-.65-1.48c-.86.76-1.37,1.22-1.51,1.37a5.34,5.34,0,0,0-.65,1.37H60.5c-.29-.61-.51-1-.65-1.26a14.27,14.27,0,0,0-1.73-1.71,14.62,14.62,0,0,1-1.73.69,6.33,6.33,0,0,1,.22,1.83,3.7,3.7,0,0,0,1.94.34,5.9,5.9,0,0,1,1.95.11V130c0,.31.14.46.43.46q.43.46.87-.46a1.66,1.66,0,0,0,.11-1A5.63,5.63,0,0,1,61.8,127.9ZM61.15,74l-1.3,1.37h-1.3c-.29,0-.43.15-.43.46-.29.61-.15.91.43.91a2.48,2.48,0,0,0,1.3.12,7.48,7.48,0,0,1,1.3-.12Q62.65,75.56,61.15,74ZM59.85,39.9l1.3-1.37c.43-.46.57-.84.43-1.14a.88.88,0,0,0-.86-.34,1.15,1.15,0,0,1-.87-.11Q58.12,38.54,59.85,39.9Zm1.95,64.45q1.29,1.6,2.81,0A1.78,1.78,0,0,0,61.8,104.36Zm2.59-42.74c-.29-.3-.5-.46-.64-.46h-1.3l-.43.46v.46a1.4,1.4,0,0,0,1.08.46,1.42,1.42,0,0,0,1.08-.46C64.31,62.07,64.39,61.93,64.39,61.62Zm6.92-21a11.68,11.68,0,0,1,1.3,1.6V44.7a12.5,12.5,0,0,0,1.51,1.83v4.11a1.21,1.21,0,0,0,.43.57,3.3,3.3,0,0,1,.65.57,14.7,14.7,0,0,0,.22,2.74,6.6,6.6,0,0,0,.43.8,5.28,5.28,0,0,0,.65.8v2.74L78,60.48v2.06q0,2.06,2.16,1.14l.43-.46V59.1a5.55,5.55,0,0,0,.65-.8,5.41,5.41,0,0,1,.65-.8,6.2,6.2,0,0,1-1.08-1.37,2.57,2.57,0,0,1,.43-.69l.65-.69A15.26,15.26,0,0,1,82.1,52a16.08,16.08,0,0,0,1.08-1.6V45.16a13,13,0,0,1,1.51-1.83V40.59L86,39.22V33.51a5.55,5.55,0,0,0,.65-.8,5.1,5.1,0,0,1,.65-.8,3.4,3.4,0,0,1,.21-1.37,10.76,10.76,0,0,0,1.3-1.6V25a7.79,7.79,0,0,0,.76-.91,1.55,1.55,0,0,0,.32-.91,1.91,1.91,0,0,1,.44-1.37,7.66,7.66,0,0,0,.86-1.14V16.59A7.94,7.94,0,0,0,92.7,15V12.25A11.08,11.08,0,0,0,94,10.65V6.08l2.81-3V.82c.43-.91.79-1,1.08-.23a2.16,2.16,0,0,1,.21.91,2.07,2.07,0,0,0,.22.91,1.21,1.21,0,0,0,.43.57,3.3,3.3,0,0,1,.65.57,11,11,0,0,0-1.3,1.6V9.28a10.49,10.49,0,0,0-1.29,1.6v2.74a1,1,0,0,1-1.3.69,1,1,0,0,0-1.3.69,10.76,10.76,0,0,0,1.3,1.6A3.3,3.3,0,0,0,95.28,18l-1.08,1.14A3.85,3.85,0,0,0,94,21.28a5.59,5.59,0,0,1,0,2.17,6.68,6.68,0,0,0-.54.69,9,9,0,0,1-.76.91v2.51a5.1,5.1,0,0,0-.65.8,5.92,5.92,0,0,1-.65.8v4.11a11.53,11.53,0,0,1-1.3,1.6v2.74l-1.52,1.6v4.11a3.52,3.52,0,0,0-.64.91,3.69,3.69,0,0,1-.65.91v4.11a2.47,2.47,0,0,0-.65.46l-.65.69v2.74a5.41,5.41,0,0,0-.65.8,5.55,5.55,0,0,1-.65.8v9.83a11,11,0,0,0-1.3,1.6v1.37a10.69,10.69,0,0,1-1.51,1.37v5.71a11,11,0,0,0-1.3,1.6V79q-2.38,1.37-2.59-.23a3.38,3.38,0,0,1-.21-1.37,1.27,1.27,0,0,0-.43-.57,1.18,1.18,0,0,1-.44-.57,4.72,4.72,0,0,1-.32-2.17,7.58,7.58,0,0,0-.11-2.17,14.67,14.67,0,0,1-1.08-1.6V67.79l-.76-.8-.76-.8V62.07a11.29,11.29,0,0,0-1.29-1.6V56.13l-1.3-1.37a2.71,2.71,0,0,0-.11-.8,2.69,2.69,0,0,1-.11-.8l-.86-.91c-.29-.15-.44-.61-.44-1.37a8.24,8.24,0,0,0,.11-2.29c-.08-.76-.11-1.52-.11-2.29a3.05,3.05,0,0,1-.54-.69,1.24,1.24,0,0,0-.54-.46A3.79,3.79,0,0,1,68.5,43a5.58,5.58,0,0,0,0-2.17,8.83,8.83,0,0,0-.44-.8,5.41,5.41,0,0,0-.65-.8l.65-.69a1.86,1.86,0,0,1,.87-.23,1.22,1.22,0,0,0,.86-.46c.44-.46.79-.69,1.08-.69.28.15.43.61.43,1.37a1.63,1.63,0,0,0-.11,1A5.73,5.73,0,0,1,71.3,40.59ZM68.5,113a3.85,3.85,0,0,0,1.4.69c.21,0,.68-.3,1.4-.91v-1.37a4,4,0,0,0-1.4-.69c-.22,0-.69.31-1.4.91Zm.64,59H72c.43-.46.57-.83.43-1.14l-.43-.46H69.36c-.58.46-.79.76-.65.91C69,171.63,69.14,171.86,69.14,172ZM72,92.24a.61.61,0,0,1,.43-.23c0-.3.14-.46.43-.46a2.21,2.21,0,0,1,.65-.8.64.64,0,0,0-.54-1.14,1.37,1.37,0,0,1-1-.12,5.09,5.09,0,0,0-.65,1.37A5,5,0,0,0,72,92.24Zm2.38,74.05h.86a1.7,1.7,0,0,0,1.3-.46,1.91,1.91,0,0,0-.65-1.14,6.17,6.17,0,0,1-1.08-1.37h-.87c-.58,0-.94.15-1.08.46s0,.69.43,1.14A6.6,6.6,0,0,1,74.33,166.3ZM78,188.24v1.37c-.29.61-.57.76-.86.46a2.24,2.24,0,0,0-1.52-1c-.57-.08-1.22-.19-1.94-.34.43-.76.86-1.14,1.3-1.14h1.29A1.89,1.89,0,0,1,78,188.24ZM74.76,175h-.43a1.74,1.74,0,0,0-.44,1.26c0,.53.14.88.44,1,.28.31.43.31.43,0A1.24,1.24,0,0,0,75.3,176,1.28,1.28,0,0,0,74.76,175Zm2.59-31.54h2.59l.43-.46c.29-.3.14-.61-.43-.91H76.06a4.72,4.72,0,0,0-.87,1.37,5.18,5.18,0,0,0,.65,1.37,5.77,5.77,0,0,1,.76-.69A5.17,5.17,0,0,0,77.35,143.44Zm-2.16,36.34v.69c0,.61.14,1,.43,1.14s.65,0,1.08-.46a1.72,1.72,0,0,1,.54-.69,5,5,0,0,0,.76-.69Q76.49,178,75.19,179.78Zm20.09,2.74a11,11,0,0,0-1.3,1.6v2.74L92,188.92h-1.3a10.67,10.67,0,0,1-1.52,1.37h-8q-1.3-1.14-.22-2.29a1.23,1.23,0,0,1,.87-.46h.86a1.18,1.18,0,0,0,.44.57,1.27,1.27,0,0,1,.43.57.76.76,0,0,0,1-.23,8.23,8.23,0,0,1,.76-.91h2.16a7.81,7.81,0,0,0,1.84-1.6,14.79,14.79,0,0,1,1.83-1.83,13,13,0,0,0,.22-2.74,8.15,8.15,0,0,1,1.3-1.6v-4.11a5.47,5.47,0,0,0,.64-.8,5.41,5.41,0,0,1,.65-.8v-2.74a5.22,5.22,0,0,0,.65-.8,5.41,5.41,0,0,1,.65-.8V167l.76-.8.76-.8v-4.11a4.94,4.94,0,0,0,.86-1.14,3.61,3.61,0,0,0,.43-1.37v-5.94l.65-.69.65-.69v-4.57a8.6,8.6,0,0,0,1.3-1.14v-2.06c.14-1.06.65-1.6,1.51-1.6h1.52a.63.63,0,0,1,.43.23c.29,0,.43.15.43.46a17.87,17.87,0,0,1,.22,2.74v3l-1.3,1.37v1.37l-.76.8-.76.8v8.46a1.24,1.24,0,0,1-.43.57,3,3,0,0,0-.65.57,11.34,11.34,0,0,1-.11,1.48,13.08,13.08,0,0,0-.11,1.71,8.6,8.6,0,0,1-1.3,1.14v3l-.54.57-.76.8v2.74a5.41,5.41,0,0,0-.65.8,5.46,5.46,0,0,1-.64.8v1.37l-1.52,1.6ZM84,157.61l-1.95,2.06c.14.76.44,1.07.87.91a1.33,1.33,0,0,1,1.08,0A2,2,0,0,0,84,157.61Zm.65,15.77v-.69c-.29-.61-.58-.76-.86-.46-.29,0-.44.15-.44.46v.69c0,1.07.29,1.45.87,1.14S85,173.84,84.7,173.38Zm0-34.06H84c-.43.31-.58.61-.43.91l.43.46h.65c1,0,1.37-.3,1.08-.91S85.13,139,84.7,139.33Zm2.59-20.57a1.78,1.78,0,0,0,2.81,0,1.84,1.84,0,0,1,0-1.26c.14-.38-.15-.65-.87-.8ZM107.17,15.68a10.41,10.41,0,0,1,1.51-1.83,2.26,2.26,0,0,0,0-1.37c0-.15-.21-.46-.64-.91-.44.46-.87,1-1.3,1.49A7.11,7.11,0,0,1,105,14.54h-1.95a7.86,7.86,0,0,0-1.4.91,13,13,0,0,0-1,.91,1.92,1.92,0,0,0,1.62.8,4,4,0,0,1,1.62.11,5.44,5.44,0,0,1,.76-.69,5.25,5.25,0,0,0,.76-.69A4.31,4.31,0,0,1,107.17,15.68Zm-3.89,67.2c-.15,0-.22-.07-.22-.23l-.22-.23h-1.29c-.15,0-.36.15-.65.46v.46a1.53,1.53,0,0,0,1.19.46,1.57,1.57,0,0,0,1.19-.46Zm2.81,50.05v1.37l1.3,1.37a4,4,0,0,1-.22,1.83,3.41,3.41,0,0,1-1.73.23c-.43.46-.87,1-1.3,1.49a9.59,9.59,0,0,1-1.51,1.48c0-.15-.15-.38-.44-.69a4.61,4.61,0,0,0-.21-1.37l1.51-1.6v-4.11c.43-.46.87-1,1.3-1.48s.87-1,1.3-1.49l-1.3-1.37v-3a1.61,1.61,0,0,0,1.3-1.94,1.58,1.58,0,0,1,1.08-1.94,4.72,4.72,0,0,0,.32-2.17,19.74,19.74,0,0,1-.11-2.17,11.08,11.08,0,0,0,1.29-1.6V110.3l.76-.8.76-.8V106a5.55,5.55,0,0,0,.65-.8,5.1,5.1,0,0,1,.65-.8v-2.74a5.92,5.92,0,0,0,.65-.8,5.33,5.33,0,0,1,.64-.8V95.9c.29-.3.51-.46.65-.46.29-.3.72-.34,1.3-.12s.87.5.87.8v35.2l-2.16,2.29h-1.29a1.28,1.28,0,0,0-.44-.57c-.14-.07-.21-.26-.21-.57v-9.14c0-.3-.08-.49-.22-.57a1.18,1.18,0,0,1-.43-.57,2.46,2.46,0,0,0-.76,2.4,5.54,5.54,0,0,1,.11,2.4,5.41,5.41,0,0,0-.65.8,5.55,5.55,0,0,1-.65.8v2.74a2,2,0,0,1-1.73.91c-.29,0-.47.08-.54.23A1.16,1.16,0,0,1,106.09,132.93Zm-3.24-42.05q-1.51,1.6,0,3c0-.3.14-.46.44-.46,0-.3.14-.46.43-.46a1.43,1.43,0,0,1,.65-.69c.28-.15.35-.46.21-.91a.88.88,0,0,0-.86-.34A1.15,1.15,0,0,1,102.85,90.87ZM105.44.14h2.38a2.13,2.13,0,0,1,1.3.91,3.91,3.91,0,0,0,1.08,1.14,7.15,7.15,0,0,1-3.35.69,7.15,7.15,0,0,1-3.35-.69l.43-.46ZM115.6,155.55a7.9,7.9,0,0,0-1.52,1.6,1.58,1.58,0,0,0,.11.69,1.7,1.7,0,0,1,.11.69,6.71,6.71,0,0,1,1.08,1.37v4.34l-.43.46a3.89,3.89,0,0,0-.87,1.48,3.86,3.86,0,0,0,.87,1.49,4.44,4.44,0,0,1,.65,1.48,3.93,3.93,0,0,1-.87,1.49l-.43.46v3a2.82,2.82,0,0,0,1.3,1.37v2.74l-2.16,2.29a5.13,5.13,0,0,0-1.73-1.83,1.7,1.7,0,0,0-.11-.69,1.6,1.6,0,0,1-.11-.69v-5.94a5.92,5.92,0,0,0,.65-.8,5.33,5.33,0,0,1,.64-.8l-1.29-1.37V167l1.29-1.37a11.29,11.29,0,0,0-1.29-1.6V149.84l1.29-1.37a3.08,3.08,0,0,1-.54-.69,1.23,1.23,0,0,0-.54-.46,7.18,7.18,0,0,1-.32-2.74c.07-.91.11-1.9.11-3v-6.17a4.72,4.72,0,0,1,1.62-.46h1.84l.21.23c0,.15.07.23.22.23a1,1,0,0,1-.22.69,1.64,1.64,0,0,1-.43.34,1.25,1.25,0,0,0-.43.57,11.68,11.68,0,0,1,1.3,1.6Zm12.75,34.74a10.67,10.67,0,0,1-1.51-1.37,2.89,2.89,0,0,0-1.3.23,1.2,1.2,0,0,0-.54.46,1.19,1.19,0,0,1-.54.46c-.15,0-.22,0-.22.12s-.08.11-.22.11q-2.81,0-5.4.11a26.52,26.52,0,0,1-5.4-.34l-.44-.46v-2.74a5.2,5.2,0,0,1-.64-.8,6.16,6.16,0,0,0-.65-.8v-2.74a1.57,1.57,0,0,1,1.51-.8,12.72,12.72,0,0,0,1.73.11c.43,0,.65.31.65.91a11.59,11.59,0,0,1,.22,2.51c.28.46.57.69.86.69a3.42,3.42,0,0,1,1.08.23l1.3,1.37h4.11l1.3-1.37h5.4a5.92,5.92,0,0,0,1.3,1.14,4.7,4.7,0,0,0,1.08-.91,7.66,7.66,0,0,1,4.54,0c.57,0,.72.38.43,1.14-.72-.15-1.11,0-1.19.46a8.33,8.33,0,0,0-.11,1.37,3.48,3.48,0,0,0-.44.57c-.14.23-.29.34-.43.34ZM113.43,1.51h2.81L117.54.14h2.59l1.95,2.06-.65.69h-8L113,2.42C112.71,2.12,112.86,1.82,113.43,1.51Zm8.86,176.67.44.46c0,.31.14.46.43.46a3.7,3.7,0,0,1,.65.91.42.42,0,0,0,.65.23c.43-.3.61-.61.54-.91a4,4,0,0,1-.11-.91,4.47,4.47,0,0,0-1.3-.91A4.64,4.64,0,0,0,122.29,178.18ZM133.53.14A10.8,10.8,0,0,1,135,1.51a3.5,3.5,0,0,0,1.51-.23l.87-.91a1.7,1.7,0,0,1,1.3-.34A7.18,7.18,0,0,0,140,.14H142a7.24,7.24,0,0,0,1.3-.11,1.71,1.71,0,0,1,1.3.34,1.22,1.22,0,0,1,.54.46,1.17,1.17,0,0,0,.54.46c.72.31,1.26.31,1.62,0A15.61,15.61,0,0,0,148.44.14h7.78c.14,0,.36.15.65.46a.68.68,0,0,1,.21.46V52.93l.22.46a5.43,5.43,0,0,1,1.3,2.06q0,.46-1.52,2.06v7.09a11,11,0,0,1,1.3,1.6v45.25a3,3,0,0,1-.54.8l-.76.8v1.37l1.3,1.37V134.3l-1.3,1.37a3.09,3.09,0,0,0,.65.57,1.28,1.28,0,0,1,.44.57c.57.76.65,1.37.21,1.83a11.94,11.94,0,0,0-.86,1,12.87,12.87,0,0,1-.87,1h-1.51l-.65-.69V118.76a11.45,11.45,0,0,0,1.3-1.6l-1.3-1.37,1.3-1.37-1.08-1.14a.49.49,0,0,0-.11-.34.46.46,0,0,1-.11-.34V71.9l-.65-.69-.43-.46a4.58,4.58,0,0,1-.32-2.17,21.07,21.07,0,0,0,.11-2.17q.21-.46,1.08-1.83V56.13a9.17,9.17,0,0,1-1.08-1.37V52a3,3,0,0,1,.54-.8l.76-.8V47.68a10.82,10.82,0,0,1-1.3-1.6V44.7a6.37,6.37,0,0,0,1.08-1.37V40.59a4.87,4.87,0,0,0-.86-1.14.94.94,0,0,1-.22-.69V31a1,1,0,0,1,.22-.69l.86-.91a6,6,0,0,0,.22-2.74,10.05,10.05,0,0,1,0-3,8.15,8.15,0,0,1,1.3-1.6l-1.3-1.37V16.36l1.3-1.37V13.62l-.76-.8-.76-.8V4.94a16,16,0,0,1-1.73-2.06H124.89c-1.16,0-1.59-.61-1.3-1.83,0-.61.29-.91.87-.91Zm-8.64,21.48v1.48a2.25,2.25,0,0,0,.43,1,5.83,5.83,0,0,0,3.24,0,1.6,1.6,0,0,1,1.19-1,3.18,3.18,0,0,0,1.4-.57c.29,0,.44-.15.44-.46s-.15-.46-.44-.46A43.32,43.32,0,0,0,124.89,21.62Zm1.3,63.77h.65l.65-.69c0-.15-.22-.46-.65-.91h-.65c-.58,0-.94.15-1.08.46C124.81,85,125.18,85.39,126.18,85.39Zm1.3-13.26a1,1,0,0,0-.22-.69,1.43,1.43,0,0,0-1.08-.46,1.25,1.25,0,0,0-1.08.69v.46a1.53,1.53,0,0,0,1.19.46A1.57,1.57,0,0,0,127.48,72.13Zm-1.3,107.65a2.26,2.26,0,0,0,1.73.69h1.3a.94.94,0,1,0-.65-1.37h-1.3A1.25,1.25,0,0,0,126.18,179.78Zm1.3-68.11a16.9,16.9,0,0,1,1.73.69,5.37,5.37,0,0,0,2.16-2.29,3.11,3.11,0,0,0-.54-.8,3,3,0,0,1-.54-.8,2.07,2.07,0,0,1-.22-.91,1.35,1.35,0,0,0-.43-.91l-1.95,2.06a6.53,6.53,0,0,1,1.08,1.37A8.26,8.26,0,0,1,127.48,111.67Zm2.16,43.2a15.64,15.64,0,0,1-1.95,1.83,2.26,2.26,0,0,0,.65,2.51,1.18,1.18,0,0,1,.87-.11c.28.08.57-.11.86-.57l.43-1.83A1.87,1.87,0,0,0,129.64,154.87Zm0-66.74H129c-.43-.3-.8-.15-1.08.46-.29.31-.15.61.43.91a11.31,11.31,0,0,1,1.3,1.6A2,2,0,0,0,129.64,88.13Zm-.65,29v4.34c0,.31.14.46.43.46h.44l1.08-1.14h2.59c.29,0,.44-.15.44-.46a6,6,0,0,0,.54-1.83,3,3,0,0,0-.76-2.06,1.38,1.38,0,0,1-1,.11,1,1,0,0,0-1,.34c-.14.46-.07.76.22.91a3.46,3.46,0,0,1,.86.69c-.14.61-.64.91-1.51.91a1.53,1.53,0,0,1-1.08-1.37v-.69C130.14,116.78,129.71,116.7,129,117.16Zm5.4,49.83v-.69c0-.76-.22-1.22-.65-1.37a.61.61,0,0,0-.43.23l-4.11,4.34c-.29.61-.15.91.43.91a6.23,6.23,0,0,0,2.05.11,17.87,17.87,0,0,1,2.05-.11l.43-.46a2.21,2.21,0,0,1-.54-.8,2.33,2.33,0,0,0-.54-.8Zm-3.46-83.19.43-.46c.29,0,.43-.15.43-.46a3.45,3.45,0,0,1,.87-.69q.43-.23,0-.69c-.15-.3-.72-.46-1.73-.46a12,12,0,0,0-.87,1,12.86,12.86,0,0,1-.86,1c-.15.15,0,.38.43.69.29.15.5.19.65.11A1.43,1.43,0,0,1,130.94,83.79Zm1.3,7.08a16.11,16.11,0,0,1-1.73,2.06c-.29.31-.14.61.44.91h2.59c.14,0,.25-.11.32-.34a1.49,1.49,0,0,1,.32-.57Zm0,8.69h-.65c-.44-.3-.8-.15-1.08.46-.14.15,0,.46.44.91l1.3,1.37A1.62,1.62,0,0,0,132.24,99.56Zm.43-83a.3.3,0,0,0,0-.46,1.57,1.57,0,0,0-1.19-.46c-.51,0-.83.15-1,.46v.46a1.34,1.34,0,0,0,1.19.69A.92.92,0,0,0,132.67,16.59Zm1.73,43.2h-.65c-.43.31-.65.61-.65.91.29.31.5.46.65.46h.65c1,0,1.37-.3,1.08-.91S134.83,59.49,134.39,59.79Zm-.65,97.82c-.29.31-.51.46-.65.46a1.9,1.9,0,0,0,.65,1.14h2.59c.28-.3.43-.53.43-.69s0-.46-.43-.91Zm9.94-61c.29-.46.14-.84-.43-1.14a1.13,1.13,0,0,0-1.08-.34,1,1,0,0,1-1.08-.57,5.61,5.61,0,0,1,1.08-1.26c.43-.38.86-.8,1.3-1.26.28-.3.14-.61-.44-.91h-1.3a6.81,6.81,0,0,1-1.08.91,3.46,3.46,0,0,0-1.08,1.37,4,4,0,0,1,0,1.83q-.22.92.87,1.37h3.24c.29.76.14,1.14-.43,1.14a3.73,3.73,0,0,1-1.95.34,15.25,15.25,0,0,0-1.95-.11.84.84,0,0,1-.64.23q-1.3,1.37-1.73,1.37c-.29,0-.86-.46-1.73-1.37-.72.15-1,.46-1,.91a7.71,7.71,0,0,1,.11,1.14l1.95,2.06h3.89a5.68,5.68,0,0,0,1.19-1.14c.36-.46.9-.53,1.62-.23l1.62-1.71a15.65,15.65,0,0,0,1.4-1.71c.29,0,.29-.15,0-.46,0-.3-.15-.46-.43-.46ZM137.2,188a10.71,10.71,0,0,1,1.08-1,8,8,0,0,0,.87-.8h6.48a4.76,4.76,0,0,0,.76.69,6.66,6.66,0,0,0,.76.46q1.51-1.37,1.95-1.37t1.95,1.37a4,4,0,0,0,1.73-1.37,16.91,16.91,0,0,1,1.51-1.83,1,1,0,0,1,.11-.46,1.68,1.68,0,0,0,.11-.69V167a5,5,0,0,0,1.3-2.17,5.09,5.09,0,0,0-1.3-2.17,7.72,7.72,0,0,0-.11-1.14,2.88,2.88,0,0,1,.11-1.37c0-.61.28-.91.86-.91,1.3,0,1.87-.69,1.73-2.06,0-.76.44-.84,1.3-.23v4.34l-1.3,1.37a4.5,4.5,0,0,1,1.3,1.6v1.37L156,168.13a1.25,1.25,0,0,0,.87,1.26c.57.23.65.72.21,1.48a3.57,3.57,0,0,1,.65.91,3.47,3.47,0,0,0,.65.91v2.74l-1.3,1.37v12.8a1.75,1.75,0,0,1-1.08.69H138.07a.85.85,0,0,1-.65-.23c-.44-.3-.58-.65-.44-1A3,3,0,0,0,137.2,188Zm.43-41.83a6.35,6.35,0,0,0,1.95-2.06,1.7,1.7,0,0,1,.11-.69.86.86,0,0,0-.11-.69c0-.76-.22-.91-.65-.46a14.77,14.77,0,0,1-1.95,1.83v1.37c0,.46.14.69.44.69Zm2.59-29.71h-.43a1.71,1.71,0,0,0-1.3.46,1.59,1.59,0,0,0,.43,1.14,1.68,1.68,0,0,1,.65.57,5.28,5.28,0,0,0,.65.8Q141.74,117.85,140.23,116.47Zm.22-89.37A15.14,15.14,0,0,1,142.17,25q-.22-.91-.76-.8a4.57,4.57,0,0,1-1,.11Q138.71,25.73,140.45,27.11Zm-.87,127.08v.69a1.06,1.06,0,0,0,.65,1.14h.43c.58-.61,1.11-1.14,1.62-1.6s1.11-1.06,1.83-1.83a7.2,7.2,0,0,1-1.94-.69,4.28,4.28,0,0,0-1.4,1.14A5.84,5.84,0,0,1,139.58,154.18Zm2.81-16.46h1.95c.57-.61.87-1,.87-1.14a5.28,5.28,0,0,0-.65-1.37c-.87.76-1.37,1.22-1.52,1.37a5.62,5.62,0,0,0-.65,1.14h-1.94l-.44.46-.21.46c0,.31.14.46.43.46Q142.17,139.78,142.39,137.73Zm-1.29,42.06a1.57,1.57,0,0,0,2.59,0l-.43-.46-.43-.46a3.33,3.33,0,0,1-.65-.91c-.15-.3-.36-.3-.65,0-.43.15-.61.42-.54.8A5.74,5.74,0,0,1,141.09,179.78Zm2.59-32v-2.06c-.58-.61-1-.91-1.19-.91a3.85,3.85,0,0,0-1.4.69c.71.91,1.15,1.45,1.29,1.6a4.82,4.82,0,0,0,1.3.69v2.06a4.86,4.86,0,0,0,.87.8c.14.08.35,0,.65-.12a1.22,1.22,0,0,0,1.29-1.14c0-.91-.29-1.45-.86-1.6ZM142,160.35c0-.15.07-.23.22-.23l.21-.23v-1.37c0-.3-.14-.46-.43-.46l-.43-.23a2,2,0,0,0,0,2.51Zm-.22-119.08-.43.46c-.14.31,0,.61.43.91h2.59c.29,0,.43-.15.43-.46.29-.3.14-.61-.43-.91Zm1.95,47.54a5,5,0,0,1,1.08,1,2.26,2.26,0,0,0,1.08.8,10.34,10.34,0,0,0,1.52-1.37c0-.15,0-.23.11-.23s.11-.08.11-.23a1.21,1.21,0,0,0-1-.69h-1.19A1.9,1.9,0,0,0,143.68,88.82Zm2.59,53.71c-.29-.3-.51-.46-.65-.46h-1.3l-.43.46V143c.14.31.47.46,1,.46a1.54,1.54,0,0,0,1.19-.46C145.91,143,146,142.83,146.28,142.53Zm2.81-116.11a1.16,1.16,0,0,1-.54-.46c-.07-.15-.25-.23-.54-.23a1.64,1.64,0,0,0-1.08.23A15.23,15.23,0,0,0,145,27.79a1.76,1.76,0,0,0,2.38.46l.86-.91Zm-1.51,52.8v-.46a1.13,1.13,0,0,0-1.19-.57,2,2,0,0,0-1.19.57v.46a1.53,1.53,0,0,0,1.19.46A1.57,1.57,0,0,0,147.58,79.22Z"/></g></g></svg>